<svg id='Multiply_24' width='24' height='24' viewBox='0 0 24 24' xmlns='http://www.w3.org/2000/svg' xmlns:xlink='http://www.w3.org/1999/xlink'><rect width='24' height='24' stroke='none' fill='#000000' opacity='0'/>


<g transform="matrix(1.11 0 0 1.11 12 12)" >
<path style="stroke: none; stroke-width: 1; stroke-dasharray: none; stroke-linecap: butt; stroke-dashoffset: 0; stroke-linejoin: miter; stroke-miterlimit: 4; fill: rgb(0,0,0); fill-rule: nonzero; opacity: 1;" transform=" translate(-15, -15)" d="M 7.9785156 5.9804688 C 7.165025138501484 5.981476122349685 6.433179905277164 6.475062969451299 6.127437663395989 7.228912707248466 C 5.821695421514815 7.982762445045633 6.00296867490812 8.846686879605206 6.5859375 9.4140625 L 12.171875 15 L 6.5859375 20.585938 C 6.0634633470514325 21.087572905835394 5.8529994608812075 21.832470225881487 6.0357142163882855 22.533349771432505 C 6.218428971895364 23.234229316983523 6.765771312964433 23.781571464517178 7.4666509231217395 23.96428597219939 C 8.167530533279045 24.1470004798816 8.91242777890691 23.936536330322234 9.4140625 23.414062 L 15 17.828125 L 20.585938 23.414062 C 21.087571146274303 23.936543589585757 21.83247198443629 24.1470132700059 22.533356103044937 23.96429962196807 C 23.234240221653586 23.781585973930238 23.781585973930238 23.234240221653586 23.96429962196807 22.533356103044937 C 24.1470132700059 21.83247198443629 23.936543589585757 21.087571146274303 23.414062 20.585938 L 17.828125 15 L 23.414062 9.4140625 C 24.005582839873917 8.83907980009664 24.183439634795 7.959930661086097 23.861931289516043 7.200237043165499 C 23.540422944237086 6.440543425244902 22.78550497697668 5.956151940152536 21.960938 5.9804688 C 21.44134076662452 5.99595104529762 20.948181225052657 6.213109348227154 20.585938 6.5859375 L 15 12.171875 L 9.4140625 6.5859375 C 9.037047835508137 6.198385885853707 8.519196711713825 5.979972508542745 7.9785156 5.980468799999999 z" stroke-linecap="round" />
</g>
</svg>