<svg id='Volume_Control_Off_1_1_24' width='24' height='24' viewBox='0 0 24 24' xmlns='http://www.w3.org/2000/svg' xmlns:xlink='http://www.w3.org/1999/xlink'><rect width='24' height='24' stroke='none' fill='#000000' opacity='0'/>


<g transform="matrix(0.83 0 0 0.83 12 12)" >
<g style="" >
<g transform="matrix(1 0 0 1 -2.75 -3.5)" >
<path style="stroke: none; stroke-width: 1; stroke-dasharray: none; stroke-linecap: butt; stroke-dashoffset: 0; stroke-linejoin: miter; stroke-miterlimit: 4; fill: rgb(0,0,0); fill-rule: nonzero; opacity: 1;" transform=" translate(-9.25, -8.5)" d="M 16.18 4.3 C 16.22325794831615 4.253749196969714 16.24814856945168 4.193300545640568 16.25 4.13 L 16.25 3 C 16.25049718037557 2.7240528858072977 16.1369445550801 2.4601654808583833 15.93622204999539 2.2708046270048854 C 15.735499544910683 2.0814437731513875 15.465450381707528 1.9834426983846163 15.19 2 C 11.89187357822419 2.1738760662168253 8.90826976572724 4.012258213310905 7.270000000000001 6.879999999999998 C 7.213680798540908 6.97222049733638 7.106191999000622 7.019993297132063 7 7 L 5.25 7 C 3.5931457505076194 7 2.25 8.34314575050762 2.25 10 L 2.25 12 C 2.25 13.65685424949238 3.5931457505076194 15 5.25 15 L 5.36 15 C 5.42715520162582 15.002902933608201 5.492450023651919 14.977510502820273 5.54 14.93 Z" stroke-linecap="round" />
</g>
<g transform="matrix(1 0 0 1 0 0)" >
<path style="stroke: none; stroke-width: 1; stroke-dasharray: none; stroke-linecap: butt; stroke-dashoffset: 0; stroke-linejoin: miter; stroke-miterlimit: 4; fill: rgb(0,0,0); fill-rule: nonzero; opacity: 1;" transform=" translate(-12, -12)" d="M 23.71 1.71 C 23.8993126508231 1.5222334000944437 24.005798324341672 1.2666375363705584 24.005798324341672 1 C 24.005798324341672 0.7333624636294417 23.8993126508231 0.47776659990555626 23.71 0.29000000000000004 C 23.522233400094443 0.10068734917690306 23.26663753637056 -0.005798324341670602 23 -0.005798324341670602 C 22.73336246362944 -0.005798324341670602 22.477766599905554 0.10068734917690333 22.29 0.29000000000000037 L 0.28999999999999915 22.29 C 0.10068734917690236 22.477766599905554 -0.00579832434167149 22.73336246362944 -0.00579832434167149 23 C -0.00579832434167149 23.26663753637056 0.10068734917690231 23.522233400094443 0.28999999999999915 23.71 L 0.28999999999999915 23.71 C 0.6800374543109227 24.0977235947108 1.3099625456890758 24.0977235947108 1.699999999999999 23.71 L 8.329999999999998 17.080000000000002 C 8.377166887573937 17.02485349304178 8.447592697118212 16.995200520602083 8.52 17 C 8.585471278314607 17.001250453014762 8.647305493368831 17.030348907157926 8.69 17.08 C 10.428896157931412 18.812243035699407 12.7400865735506 19.850500883946797 15.19 20 C 15.465450381707528 20.016557301615382 15.735499544910683 19.91855622684861 15.93622204999539 19.729195372995115 C 16.1369445550801 19.539834519141618 16.25049718037557 19.275947114192704 16.25 19 L 16.25 9.27 C 16.252081965034968 9.20376444269172 16.276786005208926 9.140239767958683 16.32 9.09 Z" stroke-linecap="round" />
</g>
</g>
</g>
</svg>