<svg id='Play_24' width='24' height='24' viewBox='0 0 24 24' xmlns='http://www.w3.org/2000/svg' xmlns:xlink='http://www.w3.org/1999/xlink'><rect width='24' height='24' stroke='none' fill='#000000' opacity='0'/>


<g transform="matrix(0.83 0 0 0.83 12 12)" >
<path style="stroke: none; stroke-width: 1; stroke-dasharray: none; stroke-linecap: butt; stroke-dashoffset: 0; stroke-linejoin: miter; stroke-miterlimit: 4; fill: rgb(0,0,0); fill-rule: nonzero; opacity: 1;" transform=" translate(-16, -15)" d="M 6 3 C 5.447715250169207 3 5 3.4477152501692068 5 4 C 4.999997456931168 4.001302065424949 4.999997456931168 4.002604134575051 5 4.0039062 L 5 15 L 5 25.996094 C 4.999997457191576 25.99739599875847 4.999997457191576 25.99869800124153 5 26 C 5 26.552284749830793 5.447715250169207 27 6 27 C 6.208161653190648 26.99939863788814 6.41094691965285 26.933851882267366 6.5800781 26.8125 L 6.5820312 26.814453 L 26.416016 15.908203 C 26.77143390778624 15.745605470016656 26.99954873081957 15.390844780300261 27 15 C 27.000200642803566 14.597717889238558 26.759325224181982 14.234480761965193 26.388672 14.078125 L 6.5820312 3.1855469 L 6.5800781 3.1855469 C 6.4107140540402305 3.0648892444540654 6.207948188055822 3.0000314643392456 5.999999999999999 3 z" stroke-linecap="round" />
</g>
</svg>