<svg id='Volume_Control_Medium_1_24' width='24' height='24' viewBox='0 0 24 24' xmlns='http://www.w3.org/2000/svg' xmlns:xlink='http://www.w3.org/1999/xlink'><rect width='24' height='24' stroke='none' fill='#000000' opacity='0'/>


<g transform="matrix(0.83 0 0 0.83 12 12)" >
<g style="" >
<g transform="matrix(1 0 0 1 -4.01 -0.01)" >
<path style="stroke: none; stroke-width: 1; stroke-dasharray: none; stroke-linecap: butt; stroke-dashoffset: 0; stroke-linejoin: miter; stroke-miterlimit: 4; fill: rgb(0,0,0); fill-rule: nonzero; opacity: 1;" transform=" translate(-7.99, -11.99)" d="M 13.19 3 C 9.891963793985575 3.173904347723892 6.906727214763899 5.007208526892814 5.259999999999999 7.870000000000002 C 5.212417226977939 7.966859689063208 5.106037415063803 8.020049595020277 5 8 L 4.75 8 C 3.0931457505076194 8 1.75 9.34314575050762 1.75 11 L 1.75 13 C 1.75 14.65685424949238 3.0931457505076194 16 4.75 16 L 5 16 C 5.092224653121307 15.997445441782077 5.177749527668362 16.047982867650788 5.22 16.13 C 7.4 20.22 12.05 20.979999999999997 13.219999999999999 20.979999999999997 C 13.772284749830792 20.979999999999997 14.219999999999999 20.53228474983079 14.219999999999999 19.979999999999997 L 14.219999999999999 4 C 14.22012175193003 3.7295028996705946 14.110656783444135 3.4704947277877203 13.916580966482014 3.2820716045235248 C 13.722505149519893 3.0936484812593297 13.46037537579991 2.991885058767565 13.19 3 Z" stroke-linecap="round" />
</g>
<g transform="matrix(1 0 0 1 7.93 0.49)" >
<path style="stroke: none; stroke-width: 1; stroke-dasharray: none; stroke-linecap: butt; stroke-dashoffset: 0; stroke-linejoin: miter; stroke-miterlimit: 4; fill: rgb(0,0,0); fill-rule: nonzero; opacity: 1;" transform=" translate(-19.93, -12.49)" d="M 19.34 5.45 C 18.947877827620136 5.057877827620137 18.312122172379862 5.057877827620138 17.92 5.450000000000001 C 17.527877827620138 5.842122172379865 17.527877827620138 6.477877827620137 17.92 6.87 C 19.412450520517435 8.359489559641627 20.251149850459544 10.381448908735152 20.251149850459544 12.489999999999998 C 20.251149850459544 14.598551091264842 19.41245052051744 16.620510440358366 17.920000000000005 18.109999999999996 C 17.532276405289203 18.500037454310924 17.532276405289203 19.129962545689075 17.92 19.52 C 18.10776659990556 19.709312650823097 18.363362463629443 19.81579832434167 18.630000000000003 19.81579832434167 C 18.896637536370562 19.81579832434167 19.152233400094445 19.709312650823097 19.340000000000003 19.52 C 23.19739655759566 15.623150757065607 23.19739655759566 9.346849242934391 19.340000000000003 5.449999999999999 Z" stroke-linecap="round" />
</g>
<g transform="matrix(1 0 0 1 4.96 0.52)" >
<path style="stroke: none; stroke-width: 1; stroke-dasharray: none; stroke-linecap: butt; stroke-dashoffset: 0; stroke-linejoin: miter; stroke-miterlimit: 4; fill: rgb(0,0,0); fill-rule: nonzero; opacity: 1;" transform=" translate(-16.96, -12.52)" d="M 16.89 8 C 16.495676493039863 7.657207302057902 15.903921685230744 7.675765792867392 15.531853158453032 8.042593917859504 C 15.159784631675318 8.409422042851615 15.132834744687347 9.000854096208268 15.47 9.4 C 17.169859991605026 11.105427931934969 17.169859991605026 13.86457206806503 15.470000000000002 15.57 C 15.075116403870984 15.962122172379864 15.072877827620138 16.600116403870985 15.465 16.995 C 15.857122172379864 17.389883596129017 16.495116403870984 17.392122172379864 16.89 17 C 19.361000082658293 14.508820117374775 19.361000082658293 10.491179882625223 16.89 7.999999999999998 Z" stroke-linecap="round" />
</g>
</g>
</g>
</svg>